<?xml version="1.0" standalone="no"?>
<!DOCTYPE svg PUBLIC "-//W3C//DTD SVG 20010904//EN"
 "http://www.w3.org/TR/2001/REC-SVG-20010904/DTD/svg10.dtd">
<svg version="1.0" xmlns="http://www.w3.org/2000/svg"
 width="260.000000pt" height="260.000000pt" viewBox="0 0 260.000000 260.000000"
 preserveAspectRatio="xMidYMid meet">
<metadata>
Created by potrace 1.14, written by Peter Selinger 2001-2017
</metadata>
<g transform="translate(0.000000,260.000000) scale(0.100000,-0.100000)"
fill="#000000" stroke="none">
<path d="M1084 2581 c-277 -49 -498 -165 -699 -366 -160 -160 -253 -310 -319
-515 -125 -386 -67 -788 161 -1133 61 -93 247 -279 340 -340 164 -109 350
-181 539 -211 317 -50 646 25 927 211 93 61 279 247 340 340 109 164 181 350
211 539 50 317 -25 646 -211 927 -61 93 -247 279 -340 340 -286 189 -628 264
-949 208z m418 -106 c238 -41 447 -153 629 -334 181 -182 293 -391 334 -629
19 -109 19 -316 0 -424 -62 -356 -303 -679 -629 -842 -712 -355 -1564 68
-1702 845 -43 243 -3 523 107 741 110 218 318 426 534 535 86 44 227 92 315
108 101 18 308 18 412 0z"/>
<path d="M1772 2128 l-52 -133 6 -112 c5 -80 4 -113 -4 -113 -13 0 -252 179
-429 322 l-123 98 -160 0 c-88 0 -160 -4 -160 -8 0 -5 10 -17 21 -28 12 -10
75 -76 140 -146 l119 -127 0 -246 0 -245 -235 0 -235 0 0 -60 0 -60 166 0 167
0 -7 -42 c-9 -57 -13 -60 -47 -42 -17 8 -33 14 -35 11 -2 -2 36 -43 85 -90
101 -99 70 -91 324 -87 109 1 137 -1 137 -12 0 -7 0 -194 0 -416 0 -221 2
-402 5 -402 3 0 27 45 55 100 l50 100 0 365 0 365 -246 0 c-230 0 -246 1 -239
18 6 15 25 116 25 134 0 4 30 8 68 10 l67 3 3 278 c2 251 8 308 26 261 3 -9 6
-132 6 -275 0 -240 1 -259 18 -259 9 0 32 18 50 40 l32 39 0 171 c0 145 2 171
14 167 24 -9 358 -272 433 -341 l43 -39 0 -103 0 -104 -130 0 -130 0 0 -457 0
-458 55 103 55 103 0 304 0 305 130 0 130 0 0 600 c0 397 -3 600 -10 600 -6 0
-29 -39 -53 -87 l-42 -88 -5 -278 -5 -278 -270 203 c-149 112 -309 233 -357
271 -47 37 -89 67 -92 67 -3 0 -6 -23 -6 -50 0 -40 -3 -49 -14 -43 -20 12
-176 183 -176 194 0 12 66 12 108 0 26 -8 507 -361 727 -534 l50 -40 2 94 c6
219 8 609 3 609 -3 0 -29 -60 -58 -132z"/>
<path d="M600 1804 c-53 -10 -147 -48 -195 -79 -216 -140 -292 -405 -180 -631
79 -162 264 -274 448 -274 60 0 164 23 210 46 54 27 127 78 127 90 0 18 -237
244 -256 244 -14 0 -9 -10 21 -40 33 -34 37 -42 25 -50 -52 -34 -169 -37 -228
-6 -42 22 -92 74 -110 116 -8 19 -15 60 -15 90 0 69 27 125 85 174 90 77 206
75 319 -5 13 -10 23 -4 56 32 l41 43 -62 44 c-117 82 -238 93 -361 33 -123
-61 -197 -178 -198 -316 -1 -100 23 -163 90 -235 96 -104 222 -142 347 -106
31 9 61 14 66 11 21 -13 8 -32 -27 -43 -193 -58 -386 24 -481 203 -25 45 -27
60 -27 160 0 98 3 116 27 167 35 75 104 148 176 185 72 38 97 44 187 44 88 0
165 -27 234 -81 l48 -38 38 38 38 39 -28 23 c-108 86 -187 118 -305 123 -47 2
-96 2 -110 -1z"/>
<path d="M1224 1261 c-10 -11 -2 -21 16 -21 11 0 20 -4 20 -8 0 -5 -9 -17 -20
-27 -11 -10 -20 -25 -20 -33 0 -13 33 -14 263 -9 144 4 271 7 281 7 17 0 16 5
-12 33 -37 38 -39 44 -14 50 9 2 -102 6 -246 8 -145 2 -266 2 -268 0z"/>
</g>
</svg>
